<svg width="1010" height="348" viewBox="0 0 1010 348" fill="none" xmlns="http://www.w3.org/2000/svg">
<path d="M501.326 188.285C504.772 185.965 509.45 186.878 511.77 190.328C542.234 235.603 608.998 223.657 660.51 205.478C641.61 197.77 631.263 180.227 631.91 159.599C632.518 140.168 649.532 114.063 640.811 86.063C638.737 79.408 646.105 73.7316 652.015 77.4665C652.803 77.9655 671.501 89.9109 686.545 111.264C703.504 135.33 708.97 161.642 702.721 188.18C729.122 175.95 747.333 164.979 747.898 164.632C747.972 164.589 748.042 164.546 748.116 164.503C759.867 157.86 771.376 151.845 782.635 146.425C759.224 135.926 748.167 112.16 756.986 86.6634C763.352 68.2619 787.325 48.449 787.325 19.0885C787.325 12.1138 796.046 8.88968 800.576 14.2074C801.411 15.186 821.071 38.5387 827.095 70.7687C827.859 74.8544 825.165 78.7843 821.079 79.5484C816.994 80.3164 813.064 77.6186 812.303 73.5367C809.773 59.9968 804.358 48.0631 799.395 39.3029C792.498 62.6011 775.294 79.7745 771.208 91.5834C763.703 113.291 776.456 130.784 797.625 135.603C805.765 124.815 810.88 113.162 812.838 100.905C813.496 96.8037 817.356 94.0045 821.461 94.6634C825.563 95.3222 828.358 99.1819 827.703 103.283C826.163 112.897 823.029 122.156 818.362 130.979C847.98 119.7 880.058 111.424 911.73 111.349C897.208 90.6244 899.605 65.0494 919.5 47.5641C934.089 34.7376 964.783 29.3029 979.258 3.80198C982.701 -2.26429 991.878 -0.759417 993.196 6.10216C993.371 7.01834 997.43 28.8351 992.124 54.41C986.514 81.4665 972.549 102.492 951.305 116.199C991.547 126.928 1007.23 151.692 1007.88 152.749C1010.06 156.273 1008.97 160.87 1005.46 163.065C1001.94 165.26 997.313 164.188 995.098 160.69C994.611 159.919 984.213 143.923 957.769 134.028C961.59 138.593 964.927 143.49 967.746 148.722C969.718 152.379 968.35 156.944 964.693 158.913C961.036 160.885 956.471 159.521 954.498 155.86C948.459 144.659 939.535 135.186 927.925 127.642C909.407 139.544 903.718 160.277 918.112 178.035C925.956 187.716 948.042 198.043 962.459 217.583C964.42 205.969 964.861 193.677 963.04 181.891C962.408 177.786 965.223 173.942 969.328 173.306C973.434 172.671 977.282 175.486 977.917 179.595C981.091 200.141 978.081 224.764 972.112 240.757C969.668 247.295 960.365 247.248 957.987 240.683C947.995 213.111 918.65 202.601 906.42 187.513C890.744 168.168 891.488 144.297 906.467 126.566C886.381 127.268 861.719 131.556 831.917 142.075C852.615 149.018 869.828 163.104 882.568 183.766C896.276 205.996 899.902 227.891 900.05 228.811C901.157 235.704 893.044 240.254 887.734 235.727C865.422 216.686 834.717 222.047 816.631 214.971C793.652 205.977 781.98 184.854 786.76 161.151C757.52 175.392 753.727 179.614 727.98 192.733C730.865 193.154 733.723 193.712 736.549 194.421C740.58 195.431 743.029 199.521 742.019 203.548C741.005 207.583 736.916 210.032 732.888 209.018C720.865 206.004 708.152 206.113 695.021 209.357C690.542 233.77 705.625 251.026 726.869 251.026C739.746 251.026 761.165 242.944 784.261 245.638C778.155 237.622 769.309 227.942 757.84 220.277C754.385 217.969 753.454 213.295 755.762 209.84C758.074 206.386 762.744 205.455 766.202 207.763C781.957 218.293 795.734 233.833 805.06 249.513C808.12 254.659 809.263 256.585 808.245 259.946C807.625 261.992 806.159 263.681 804.222 264.581C797.84 267.556 795.43 260.133 774.436 260.133C755.602 260.133 737.645 266.959 724.019 265.977C695.941 263.965 677.789 242.858 679.278 214.632C661.384 221.587 642.432 227.708 623.493 231.743C661.048 257.451 664.475 313.969 628.136 338.308C605.142 353.708 571.93 351.197 555.665 326.916C548.69 316.507 546.191 304 548.62 291.712C555.173 258.566 598.242 249.369 615.333 274.881C624.397 288.417 622.569 307.657 608.491 317.084C600.113 322.698 589.622 322.585 585.684 320.526C576.054 316.62 574.499 303.341 583.322 297.431C589.793 293.096 598.83 295.259 602.425 302.577C607.111 297.443 606.702 289.049 602.826 283.259C593.162 268.834 567.325 274.679 563.384 294.632C561.731 302.979 563.431 311.47 568.168 318.542C585.349 344.195 630.565 334.152 637.466 299.24C643.189 270.308 624.709 242.238 595.957 235.996C557.216 239.482 521.002 231.006 499.283 198.733C496.963 195.279 497.875 190.605 501.326 188.285V188.285ZM930.658 110.195C964.884 95.4431 979.73 64.4607 979.777 27.338C962.299 44.1645 938.794 50.644 929.434 58.8701C912.186 74.0318 914.475 95.4002 930.658 110.195ZM822.112 200.956C833.711 205.494 858.011 203.564 880.19 213.423C867.629 178.936 843.325 154.585 805.949 152.305C805.863 152.344 805.777 152.379 805.691 152.418C795.528 171.981 800.931 192.663 822.112 200.956ZM685.251 194.262C697.898 159.135 685.356 127.131 658.343 101.774C658.682 126.032 647.345 147.622 646.951 160.075C646.226 183.178 663.563 195.95 685.251 194.262Z" fill="#778885"/>
<path d="M507.676 188.285C504.23 185.965 499.552 186.878 497.232 190.328C466.768 235.603 400.004 223.657 348.492 205.478C367.392 197.77 377.739 180.227 377.092 159.599C376.484 140.168 359.47 114.063 368.191 86.063C370.265 79.408 362.897 73.7316 356.987 77.4665C356.199 77.9655 337.501 89.9109 322.456 111.264C305.497 135.33 300.032 161.642 306.281 188.18C279.88 175.95 261.669 164.979 261.104 164.632C261.03 164.589 260.96 164.546 260.885 164.503C249.135 157.86 237.626 151.845 226.367 146.425C249.778 135.926 260.835 112.16 252.016 86.6634C245.65 68.2619 221.677 48.449 221.677 19.0885C221.677 12.1138 212.956 8.88968 208.426 14.2074C207.591 15.186 187.93 38.5387 181.907 70.7687C181.143 74.8544 183.837 78.7843 187.923 79.5484C192.008 80.3164 195.938 77.6186 196.698 73.5367C199.229 59.9968 204.644 48.0631 209.607 39.3029C216.504 62.6011 233.708 79.7745 237.794 91.5834C245.299 113.291 232.546 130.784 211.377 135.603C203.236 124.815 198.121 113.162 196.164 100.905C195.506 96.8037 191.646 94.0045 187.541 94.6634C183.439 95.3222 180.644 99.1819 181.299 103.283C182.839 112.897 185.973 122.156 190.64 130.979C161.022 119.7 128.944 111.424 97.2718 111.349C111.794 90.6244 109.397 65.0494 89.5019 47.5641C74.9132 34.7376 44.2193 29.3029 29.7437 3.80198C26.3012 -2.26429 17.1239 -0.759417 15.8061 6.10216C15.6307 7.01834 11.5722 28.8351 16.8783 54.41C22.4884 81.4665 36.4533 102.492 57.6969 116.199C17.4553 126.928 1.77109 151.692 1.12002 152.749C-1.05542 156.273 0.0361998 160.87 3.54496 163.065C7.05763 165.26 11.6892 164.188 13.9036 160.69C14.3909 159.919 24.7886 143.923 51.233 134.028C47.4123 138.593 44.0751 143.49 41.2564 148.722C39.2837 152.379 40.6521 156.944 44.309 158.913C47.9659 160.885 52.5312 159.521 54.5039 155.86C60.5429 144.659 69.4668 135.186 81.0769 127.642C99.5954 139.544 105.284 160.277 90.8898 178.035C83.0457 187.716 60.96 198.043 46.5429 217.583C44.5819 205.969 44.1414 193.677 45.962 181.891C46.5936 177.786 43.7788 173.942 39.6735 173.306C35.5683 172.671 31.7203 175.486 31.0849 179.595C27.9114 200.141 30.9211 224.764 36.8899 240.757C39.3344 247.295 48.6365 247.248 51.0146 240.683C61.0068 213.111 90.3518 202.601 102.582 187.513C118.258 168.168 117.514 144.297 102.535 126.566C122.621 127.268 147.283 131.556 177.085 142.075C156.387 149.018 139.174 163.104 126.434 183.766C112.726 205.996 109.1 227.891 108.952 228.811C107.845 235.704 115.958 240.254 121.268 235.727C143.58 216.686 174.285 222.047 192.371 214.971C215.35 205.977 227.022 184.854 222.242 161.151C251.482 175.392 255.275 179.614 281.022 192.733C278.137 193.154 275.279 193.712 272.453 194.421C268.422 195.431 265.973 199.521 266.983 203.548C267.997 207.583 272.086 210.032 276.114 209.018C288.137 206.004 300.85 206.113 313.981 209.357C318.46 233.77 303.377 251.026 282.133 251.026C269.256 251.026 247.837 242.944 224.741 245.638C230.847 237.622 239.693 227.942 251.162 220.277C254.616 217.969 255.548 213.295 253.24 209.84C250.928 206.386 246.258 205.455 242.8 207.763C227.045 218.293 213.268 233.833 203.942 249.513C200.882 254.659 199.739 256.585 200.757 259.946C201.377 261.992 202.843 263.681 204.78 264.581C211.162 267.556 213.572 260.133 234.566 260.133C253.4 260.133 271.357 266.959 284.983 265.977C313.061 263.965 331.213 242.858 329.724 214.632C347.618 221.587 366.569 227.708 385.509 231.743C347.954 257.451 344.527 313.969 380.866 338.308C403.86 353.708 437.072 351.197 453.337 326.916C460.312 316.507 462.811 304 460.382 291.712C453.829 258.566 410.76 249.369 393.669 274.881C384.604 288.417 386.433 307.657 400.511 317.084C408.889 322.698 419.38 322.585 423.318 320.526C432.947 316.62 434.503 303.341 425.68 297.431C419.209 293.096 410.172 295.259 406.577 302.577C401.891 297.443 402.3 289.049 406.176 283.259C415.84 268.834 441.676 274.679 445.618 294.632C447.271 302.979 445.571 311.47 440.834 318.542C423.653 344.195 378.437 334.152 371.536 299.24C365.813 270.308 384.293 242.238 413.045 235.996C451.786 239.482 488 231.006 509.719 198.733C512.039 195.279 511.127 190.605 507.676 188.285V188.285ZM78.344 110.195C44.118 95.4431 29.272 64.4607 29.2252 27.338C46.7028 44.1645 70.2076 50.644 79.5682 58.8701C96.8157 74.0318 94.5272 95.4002 78.344 110.195ZM186.89 200.956C175.291 205.494 150.991 203.564 128.812 213.423C141.373 178.936 165.677 154.585 203.053 152.305C203.139 152.344 203.225 152.379 203.311 152.418C213.474 171.981 208.071 192.663 186.89 200.956ZM323.751 194.262C311.104 159.135 323.646 127.131 350.659 101.774C350.32 126.032 361.657 147.622 362.051 160.075C362.776 183.178 345.439 195.95 323.751 194.262Z" fill="#778885"/>
</svg>
