<svg width="1425" height="653" viewBox="0 0 1425 653" fill="none" xmlns="http://www.w3.org/2000/svg">
<path d="M37.5256 435.165C29.8333 435.165 23.3162 433.455 17.9744 430.037C12.8462 426.404 10.2821 421.917 10.2821 416.575C10.2821 411.019 11.4573 406.96 13.8077 404.395C16.3718 401.618 19.3632 400.229 22.7821 400.229C26.4145 400.229 29.2991 401.297 31.4359 403.434C33.5726 405.357 34.9615 407.173 35.6026 408.883L36.2436 411.767C32.1838 414.545 30.1538 417.537 30.1538 420.742C30.1538 423.733 30.9017 426.084 32.3974 427.793C34.1068 429.502 36.3504 430.357 39.1282 430.357C43.4017 430.357 46.6068 427.579 48.7436 422.024C50.8803 416.254 52.2692 406.212 52.9103 391.895V280.036L34.641 277.152V272.985H92.0128V277.152L73.7436 280.036V391.895C73.7436 405.357 71.7137 415.613 67.6538 422.665C62.7393 430.998 52.6966 435.165 37.5256 435.165ZM107.147 351.831C107.147 327.259 114.091 307.387 127.98 292.216C142.083 276.831 159.925 269.032 181.506 268.819C203.087 268.819 220.822 276.618 234.711 292.216C248.814 307.601 255.865 327.472 255.865 351.831C255.865 376.19 248.921 396.169 235.032 411.767C221.356 427.366 203.515 435.165 181.506 435.165C159.711 435.165 141.869 427.366 127.98 411.767C114.091 396.169 107.147 376.19 107.147 351.831ZM231.186 367.216V336.767C231.186 317.75 226.591 302.472 217.403 290.934C208.215 279.395 196.25 273.626 181.506 273.626C166.762 273.626 154.69 279.395 145.288 290.934C135.886 302.472 131.185 317.75 131.185 336.767V367.216C131.185 386.66 135.886 402.045 145.288 413.37C154.69 424.695 166.762 430.357 181.506 430.357C196.25 430.357 208.215 424.695 217.403 413.37C226.591 402.045 231.186 386.66 231.186 367.216ZM427.771 426.831V430.998H369.758V426.831L388.028 423.947V349.588H313.028V423.947L331.297 426.831V430.998H273.284V426.831L291.233 423.947V280.036L273.284 277.152V272.985H331.297V277.152L313.028 280.036V344.78H388.028V280.036L369.758 277.152V272.985H427.771V277.152L409.823 280.036V423.947L427.771 426.831ZM461.628 418.819V285.165L443.038 277.152V272.985H479.897L564.833 392.216V285.165L546.564 277.152V272.985H588.872V277.152L569.961 285.165V430.998H564.833L466.436 292.537V418.819L485.346 426.831V430.998H443.038V426.831L461.628 418.819ZM878.102 435.165C870.41 435.165 863.892 433.455 858.551 430.037C853.422 426.404 850.858 421.917 850.858 416.575C850.858 411.019 852.033 406.96 854.384 404.395C856.948 401.618 859.939 400.229 863.358 400.229C866.991 400.229 869.875 401.297 872.012 403.434C874.149 405.357 875.538 407.173 876.179 408.883L876.82 411.767C872.76 414.545 870.73 417.537 870.73 420.742C870.73 423.733 871.478 426.084 872.974 427.793C874.683 429.502 876.927 430.357 879.704 430.357C883.978 430.357 887.183 427.579 889.32 422.024C891.457 416.254 892.845 406.212 893.486 391.895V280.036L875.217 277.152V272.985H932.589V277.152L914.32 280.036V391.895C914.32 405.357 912.29 415.613 908.23 422.665C903.315 430.998 893.273 435.165 878.102 435.165ZM974.646 426.831V430.998H932.339V426.831L951.569 418.819L1008.94 268.819H1011.83L1065.99 423.947L1084.26 426.831V430.998H1026.25V426.831L1042.27 424.267L1025.29 377.472H973.044L957.018 418.819L974.646 426.831ZM1000.29 303.754L974.646 373.306H1024.01L1000.29 303.754ZM1106.16 418.819V285.165L1087.57 277.152V272.985H1124.43L1209.36 392.216V285.165L1191.1 277.152V272.985H1233.4V277.152L1214.49 285.165V430.998H1209.36L1110.97 292.537V418.819L1129.88 426.831V430.998H1087.57V426.831L1106.16 418.819ZM1324.16 320.421H1328.97V382.921H1324.16L1312.3 353.754H1286.66V426.19H1348.52L1364.87 382.921H1369.99V430.998H1246.92V426.831L1264.87 423.947V280.036L1246.92 277.152V272.985H1365.51V318.178H1360.38L1344.99 278.113H1286.66V348.947H1312.3L1324.16 320.421Z" fill="white"/>
<path d="M729.068 373.947C715.82 373.947 709.197 377.472 709.197 384.524C709.197 388.37 711.226 390.293 715.286 390.293C719.56 390.293 722.551 388.477 724.261 384.844C730.671 386.34 733.876 389.972 733.876 395.742C733.876 398.947 732.701 401.725 730.35 404.075C728.214 406.425 725.009 407.601 720.735 407.601C716.675 407.601 712.936 405.464 709.517 401.19C706.312 396.703 704.709 390.934 704.709 383.883C704.709 376.831 707.487 370.635 713.043 365.293C718.812 359.737 726.504 356.96 736.12 356.96C742.316 356.96 749.261 357.601 756.953 358.883C764.859 359.951 771.376 360.485 776.504 360.485C781.632 360.485 786.013 359.524 789.645 357.601C793.491 355.678 795.415 353.007 795.415 349.588C795.415 345.742 793.278 343.819 789.004 343.819C784.944 343.819 782.06 345.742 780.35 349.588C773.94 348.092 770.735 344.46 770.735 338.69C770.735 335.485 771.803 332.707 773.94 330.357C776.291 328.007 779.603 326.831 783.876 326.831C788.15 326.831 791.782 328.754 794.773 332.601C797.979 336.447 799.581 341.361 799.581 347.344C799.581 368.071 789.752 378.434 770.094 378.434C764.325 378.434 759.624 378.113 755.991 377.472C757.06 382.814 757.594 387.622 757.594 391.895C757.594 405.571 753.748 416.254 746.056 423.947C738.363 431.425 728 435.165 714.966 435.165C693.812 435.165 678 430.891 667.53 422.344C657.06 413.797 651.825 402.472 651.825 388.37C651.825 374.267 656.846 363.477 666.889 355.998C676.932 348.306 690.073 344.139 706.312 343.498V342.537C690.073 340.613 678 336.767 670.094 330.998C662.188 325.229 658.235 316.468 658.235 304.716C658.235 292.75 662.722 283.776 671.697 277.793C680.671 271.81 693.064 268.819 708.876 268.819C719.56 268.819 728.427 271.49 735.479 276.831C742.744 281.96 746.376 288.797 746.376 297.344C746.376 301.618 745.094 305.037 742.53 307.601C740.179 309.951 737.402 311.126 734.197 311.126C730.991 311.126 728.32 310.165 726.184 308.242C724.047 306.105 722.979 303.22 722.979 299.588C728.534 297.024 731.205 292.75 730.991 286.767C730.991 282.921 729.175 279.823 725.543 277.472C722.124 274.908 716.568 273.626 708.876 273.626C701.397 273.626 694.987 276.297 689.645 281.639C684.303 286.767 681.632 293.712 681.632 302.472C681.632 315.293 685.265 324.695 692.53 330.678C700.009 336.66 711.013 340.079 725.543 340.934V345.101C694.346 347.237 678.748 361.554 678.748 388.049C678.748 401.084 682.273 411.447 689.325 419.139C696.59 426.618 705.564 430.357 716.248 430.357C727.145 430.357 735.906 427.152 742.53 420.742C749.368 414.118 752.786 404.716 752.786 392.537C752.786 387.622 752.038 382.387 750.543 376.831C748.833 376.404 746.376 376.084 743.171 375.87C737.402 374.588 732.701 373.947 729.068 373.947ZM1393.16 429.716C1391.02 427.579 1389.85 424.801 1389.63 421.383C1389.63 417.964 1390.81 415.186 1393.16 413.049C1395.72 410.913 1398.5 409.844 1401.49 409.844C1404.7 409.844 1407.47 410.913 1409.83 413.049C1412.18 415.186 1413.35 417.857 1413.35 421.062C1413.35 424.481 1412.18 427.366 1409.83 429.716C1407.69 431.853 1404.91 432.921 1401.49 432.921C1398.29 432.921 1395.51 431.853 1393.16 429.716Z" fill="#E5D6C1"/>
<path d="M101.718 533.845V531.511H125.59V533.845L116.974 538.691L85.3846 622.332H84.4872L62.9487 562.563L40.5128 622.332H39.6154L8.38459 535.46L0.84613 533.845V531.511H31.7179V533.845L21.6666 535.46L45.359 600.973L61.5128 558.794L53.2564 535.46L43.2051 533.845V531.511H75.8718V533.845L66.359 535.281L90.4102 600.794L114.282 538.87L101.718 533.845Z" fill="white" fill-opacity="0.67"/>
<path d="M180.897 614.255C184.726 611.383 187.12 607.674 188.077 603.127H190.769C189.692 608.631 187.06 612.999 182.872 616.229C178.684 619.46 173.538 621.076 167.436 621.076C159.06 621.076 152.06 618.323 146.436 612.819C140.931 607.435 138.179 600.375 138.179 591.64C138.179 582.785 140.872 575.606 146.256 570.101C151.641 564.477 158.162 561.665 165.82 561.665C173.598 561.665 179.701 563.999 184.128 568.665C188.675 573.212 191.008 578.956 191.128 585.896H150.384V596.845C150.384 603.426 151.82 608.691 154.692 612.64C157.803 616.708 161.991 618.742 167.256 618.742C172.521 618.742 177.068 617.247 180.897 614.255ZM166.538 564.178C161.632 564.178 157.803 565.913 155.051 569.383C152.299 572.734 150.803 577.341 150.564 583.204H178.923C178.923 570.52 174.795 564.178 166.538 564.178Z" fill="white" fill-opacity="0.67"/>
<path d="M216.151 557.537H214.356C213.997 552.631 213.339 547.964 212.381 543.537C211.544 538.99 211.125 536.118 211.125 534.922C211.125 533.725 211.484 532.708 212.202 531.87C212.92 530.913 213.937 530.435 215.253 530.435C216.569 530.435 217.587 530.913 218.305 531.87C219.022 532.708 219.381 533.725 219.381 534.922C219.381 536.118 218.903 538.99 217.946 543.537C217.108 547.964 216.51 552.631 216.151 557.537Z" fill="white" fill-opacity="0.67"/>
<path d="M238.124 619.999V617.665L245.842 616.768V565.973L238.124 564.896V562.742H256.97V571.178C261.637 564.836 266.902 561.665 272.765 561.665C275.517 561.665 277.97 562.383 280.124 563.819C282.278 565.255 283.355 567.17 283.355 569.563C283.355 571.836 282.697 573.631 281.381 574.947C280.064 576.144 278.269 576.742 275.996 576.742C273.842 576.742 272.107 575.845 270.791 574.05C271.628 572.973 271.987 571.836 271.868 570.64C271.868 569.443 271.449 568.426 270.611 567.588C269.774 566.751 268.637 566.332 267.201 566.332C264.329 566.332 260.919 569.323 256.97 575.306V616.768L265.765 617.665V619.999H238.124Z" fill="white" fill-opacity="0.67"/>
<path d="M342.056 614.255C345.885 611.383 348.278 607.674 349.235 603.127H351.928C350.851 608.631 348.218 612.999 344.03 616.229C339.842 619.46 334.697 621.076 328.594 621.076C320.218 621.076 313.218 618.323 307.594 612.819C302.09 607.435 299.338 600.375 299.338 591.64C299.338 582.785 302.03 575.606 307.415 570.101C312.799 564.477 319.321 561.665 326.979 561.665C334.757 561.665 340.859 563.999 345.287 568.665C349.834 573.212 352.167 578.956 352.287 585.896H311.543V596.845C311.543 603.426 312.979 608.691 315.851 612.64C318.962 616.708 323.15 618.742 328.415 618.742C333.68 618.742 338.227 617.247 342.056 614.255ZM327.697 564.178C322.791 564.178 318.962 565.913 316.21 569.383C313.458 572.734 311.962 577.341 311.723 583.204H340.082C340.082 570.52 335.953 564.178 327.697 564.178Z" fill="white" fill-opacity="0.67"/>
<path d="M422.836 601.332C417.93 601.691 415.477 603.606 415.477 607.076C415.477 608.751 416.434 610.067 418.349 611.024C420.264 611.862 422.657 612.281 425.529 612.281H443.657C449.52 612.281 453.947 613.477 456.939 615.87C460.05 618.144 461.605 621.973 461.605 627.358C461.605 634.417 459.152 640.341 454.246 645.127C449.46 649.913 442.58 652.306 433.605 652.306C424.631 652.306 417.87 650.87 413.323 647.999C408.776 645.247 406.503 641.537 406.503 636.87C406.503 634.118 407.46 631.725 409.375 629.691C411.289 627.657 413.922 626.64 417.272 626.64C417.87 626.64 419.246 626.819 421.4 627.178C419.127 629.571 417.99 632.563 417.99 636.153C417.99 639.862 419.246 643.093 421.759 645.845C424.392 648.717 428.939 650.153 435.4 650.153C441.862 650.153 447.306 648.298 451.734 644.588C456.281 640.879 458.554 636.691 458.554 632.024C458.554 628.794 457.717 626.46 456.041 625.024C454.366 623.708 451.375 623.05 447.067 623.05H425.529C415.118 623.05 409.913 619.4 409.913 612.101C409.913 608.751 410.811 606.059 412.605 604.024C414.4 601.87 416.853 600.435 419.964 599.717C414.221 595.888 411.349 590.443 411.349 583.383C411.349 576.323 413.443 570.939 417.631 567.229C421.939 563.52 427.204 561.665 433.426 561.665C439.768 561.665 444.973 563.281 449.041 566.511C451.913 566.392 454.007 565.794 455.323 564.717C456.759 563.52 457.477 562.204 457.477 560.768C457.477 559.332 457.118 558.255 456.4 557.537C455.682 556.819 454.845 556.46 453.887 556.46C453.887 554.546 454.546 552.99 455.862 551.794C457.178 550.477 458.793 549.819 460.708 549.819C462.623 549.819 464.238 550.417 465.554 551.614C466.87 552.811 467.529 554.725 467.529 557.358C467.529 559.99 466.212 562.443 463.58 564.717C461.067 566.87 456.939 568.127 451.195 568.486C454.785 572.195 456.52 577.101 456.4 583.204C456.4 589.187 454.246 594.093 449.939 597.922C445.751 601.631 440.366 603.486 433.785 603.486C429.597 603.486 425.947 602.768 422.836 601.332ZM445.99 585.178V579.794C445.99 569.024 441.922 563.64 433.785 563.64C425.768 563.64 421.759 569.024 421.759 579.794V585.178C421.759 590.323 422.717 594.332 424.631 597.204C426.665 600.076 429.717 601.511 433.785 601.511C437.853 601.511 440.905 600.076 442.939 597.204C444.973 594.332 445.99 590.323 445.99 585.178Z" fill="white" fill-opacity="0.67"/>
<path d="M522.765 614.255C526.594 611.383 528.987 607.674 529.945 603.127H532.637C531.56 608.631 528.928 612.999 524.74 616.229C520.552 619.46 515.406 621.076 509.304 621.076C500.928 621.076 493.928 618.323 488.304 612.819C482.799 607.435 480.047 600.375 480.047 591.64C480.047 582.785 482.74 575.606 488.124 570.101C493.509 564.477 500.03 561.665 507.688 561.665C515.466 561.665 521.569 563.999 525.996 568.665C530.543 573.212 532.876 578.956 532.996 585.896H492.252V596.845C492.252 603.426 493.688 608.691 496.56 612.64C499.671 616.708 503.859 618.742 509.124 618.742C514.389 618.742 518.936 617.247 522.765 614.255ZM508.406 564.178C503.5 564.178 499.671 565.913 496.919 569.383C494.167 572.734 492.671 577.341 492.432 583.204H520.791C520.791 570.52 516.663 564.178 508.406 564.178Z" fill="white" fill-opacity="0.67"/>
<path d="M583.326 562.742V564.896L568.967 565.973V605.64C568.967 613.537 571.779 617.426 577.403 617.306C579.916 617.306 582.249 616.529 584.403 614.973L585.839 616.768C582.489 619.64 578.54 621.076 573.993 621.076C563.343 621.076 558.019 615.99 558.019 605.819V565.973L549.942 564.896V562.742H558.019V553.409L568.967 550.717V562.742H583.326Z" fill="white" fill-opacity="0.67"/>
<path d="M632.534 562.742V564.896L618.175 565.973V605.64C618.175 613.537 620.987 617.426 626.611 617.306C629.124 617.306 631.457 616.529 633.611 614.973L635.047 616.768C631.697 619.64 627.748 621.076 623.201 621.076C612.551 621.076 607.226 615.99 607.226 605.819V565.973L599.15 564.896V562.742H607.226V553.409L618.175 550.717V562.742H632.534Z" fill="white" fill-opacity="0.67"/>
<path d="M653.742 542.46C653.742 540.306 654.46 538.571 655.896 537.255C657.332 535.939 659.067 535.281 661.101 535.281C663.255 535.281 664.99 535.939 666.306 537.255C667.742 538.571 668.46 540.306 668.46 542.46C668.46 544.494 667.742 546.229 666.306 547.665C664.99 549.101 663.315 549.819 661.28 549.819C659.246 549.819 657.451 549.101 655.896 547.665C654.46 546.229 653.742 544.494 653.742 542.46ZM649.614 564.896V562.922H668.46V616.768L675.998 617.665V619.999H649.614V617.665L657.332 616.768V566.153L649.614 564.896Z" fill="white" fill-opacity="0.67"/>
<path d="M738.703 577.819C738.703 569.682 735.533 565.614 729.191 565.614C722.968 565.614 716.926 569.922 711.062 578.537V616.768L717.703 617.665V619.999H692.216V617.665L699.934 616.768V565.973L692.216 564.896V562.742H711.062V574.588C717.045 565.973 724.225 561.665 732.601 561.665C737.866 561.665 742.054 563.041 745.165 565.794C748.276 568.426 749.832 572.315 749.832 577.46V616.768L757.37 617.665V619.999H732.062V617.665L738.703 616.768V577.819Z" fill="white" fill-opacity="0.67"/>
<path d="M788.357 601.332C783.451 601.691 780.998 603.606 780.998 607.076C780.998 608.751 781.955 610.067 783.869 611.024C785.784 611.862 788.177 612.281 791.049 612.281H809.177C815.04 612.281 819.468 613.477 822.459 615.87C825.57 618.144 827.126 621.973 827.126 627.358C827.126 634.417 824.673 640.341 819.767 645.127C814.98 649.913 808.1 652.306 799.126 652.306C790.151 652.306 783.391 650.87 778.844 647.999C774.297 645.247 772.023 641.537 772.023 636.87C772.023 634.118 772.98 631.725 774.895 629.691C776.81 627.657 779.442 626.64 782.792 626.64C783.391 626.64 784.767 626.819 786.921 627.178C784.647 629.571 783.51 632.563 783.51 636.153C783.51 639.862 784.767 643.093 787.28 645.845C789.912 648.717 794.459 650.153 800.921 650.153C807.382 650.153 812.827 648.298 817.254 644.588C821.801 640.879 824.074 636.691 824.074 632.024C824.074 628.794 823.237 626.46 821.562 625.024C819.886 623.708 816.895 623.05 812.587 623.05H791.049C780.639 623.05 775.433 619.4 775.433 612.101C775.433 608.751 776.331 606.059 778.126 604.024C779.921 601.87 782.374 600.435 785.485 599.717C779.741 595.888 776.869 590.443 776.869 583.383C776.869 576.323 778.963 570.939 783.151 567.229C787.459 563.52 792.724 561.665 798.946 561.665C805.288 561.665 810.493 563.281 814.562 566.511C817.433 566.392 819.527 565.794 820.844 564.717C822.28 563.52 822.998 562.204 822.998 560.768C822.998 559.332 822.639 558.255 821.921 557.537C821.203 556.819 820.365 556.46 819.408 556.46C819.408 554.546 820.066 552.99 821.382 551.794C822.698 550.477 824.314 549.819 826.228 549.819C828.143 549.819 829.758 550.417 831.074 551.614C832.391 552.811 833.049 554.725 833.049 557.358C833.049 559.99 831.733 562.443 829.1 564.717C826.587 566.87 822.459 568.127 816.716 568.486C820.305 572.195 822.04 577.101 821.921 583.204C821.921 589.187 819.767 594.093 815.459 597.922C811.271 601.631 805.886 603.486 799.305 603.486C795.117 603.486 791.468 602.768 788.357 601.332ZM811.51 585.178V579.794C811.51 569.024 807.442 563.64 799.305 563.64C791.288 563.64 787.28 569.024 787.28 579.794V585.178C787.28 590.323 788.237 594.332 790.151 597.204C792.186 600.076 795.237 601.511 799.305 601.511C803.374 601.511 806.425 600.076 808.459 597.204C810.493 594.332 811.51 590.323 811.51 585.178Z" fill="white" fill-opacity="0.67"/>
<path d="M918.915 619.999V617.665L925.556 616.768V577.819C925.556 569.682 922.624 565.614 916.761 565.614C910.898 565.614 905.394 569.323 900.248 576.742V616.768L906.889 617.665V619.999H881.402V617.665L889.12 616.768V565.973L881.402 564.896V562.742H900.248V572.973C905.872 565.435 912.453 561.665 919.992 561.665C929.445 561.665 934.949 565.614 936.505 573.511C942.248 565.614 948.949 561.665 956.607 561.665C961.872 561.665 965.941 562.982 968.812 565.614C971.804 568.247 973.3 572.195 973.3 577.46V616.768L981.018 617.665V619.999H955.71V617.665L962.171 616.768V577.819C962.171 569.682 959.24 565.614 953.377 565.614C947.513 565.614 942.009 569.323 936.864 576.742V616.768L943.505 617.665V619.999H918.915Z" fill="white" fill-opacity="0.67"/>
<path d="M1034.43 609.05C1032.52 612.879 1029.76 615.87 1026.18 618.024C1022.59 620.059 1018.46 621.076 1013.79 621.076C1009.24 621.076 1005.47 619.879 1002.48 617.486C999.611 614.973 998.175 611.563 998.175 607.255C998.175 602.947 999.072 599.537 1000.87 597.024C1005.89 590.443 1015.76 587.153 1030.48 587.153H1034.43V576.383C1034.43 568.247 1030.72 564.178 1023.3 564.178C1019.95 564.178 1017.2 564.956 1015.05 566.511C1013.01 568.067 1012 569.862 1012 571.896C1012 573.93 1012.95 575.247 1014.87 575.845C1014.87 577.759 1014.15 579.435 1012.71 580.87C1011.4 582.187 1009.78 582.845 1007.87 582.845C1006.07 582.845 1004.46 582.187 1003.02 580.87C1001.71 579.435 1001.05 577.7 1001.05 575.665C1001.05 571.836 1003.2 568.546 1007.51 565.794C1011.82 563.041 1017.08 561.665 1023.3 561.665C1038.26 561.665 1045.68 567.349 1045.56 578.717V612.64C1045.56 615.99 1046.94 617.665 1049.69 617.665C1052.44 617.665 1053.82 616.05 1053.82 612.819H1056.15C1056.15 615.332 1055.31 617.366 1053.64 618.922C1051.96 620.358 1049.51 621.076 1046.28 621.076C1043.05 621.076 1040.29 620.118 1038.02 618.204C1035.75 616.17 1034.55 613.118 1034.43 609.05ZM1034.43 601.153V589.845H1030.48C1024.74 589.845 1019.89 591.221 1015.94 593.973C1012.12 596.725 1010.2 600.853 1010.2 606.358C1010.2 609.349 1010.98 611.682 1012.53 613.358C1014.21 615.033 1016.66 615.87 1019.89 615.87C1023.12 615.87 1026.23 614.554 1029.23 611.922C1032.22 609.289 1033.95 605.7 1034.43 601.153Z" fill="white" fill-opacity="0.67"/>
<path d="M1069.64 619.999V617.665L1077.36 616.768V565.973L1069.64 564.896V562.742H1088.49V571.178C1093.15 564.836 1098.42 561.665 1104.28 561.665C1107.04 561.665 1109.49 562.383 1111.64 563.819C1113.8 565.255 1114.87 567.17 1114.87 569.563C1114.87 571.836 1114.21 573.631 1112.9 574.947C1111.58 576.144 1109.79 576.742 1107.51 576.742C1105.36 576.742 1103.62 575.845 1102.31 574.05C1103.15 572.973 1103.51 571.836 1103.39 570.64C1103.39 569.443 1102.97 568.426 1102.13 567.588C1101.29 566.751 1100.15 566.332 1098.72 566.332C1095.85 566.332 1092.44 569.323 1088.49 575.306V616.768L1097.28 617.665V619.999H1069.64Z" fill="white" fill-opacity="0.67"/>
<path d="M1129.24 619.999V617.665L1136.96 616.768V565.973L1129.24 564.896V562.742H1148.09V571.178C1152.75 564.836 1158.02 561.665 1163.88 561.665C1166.63 561.665 1169.09 562.383 1171.24 563.819C1173.39 565.255 1174.47 567.17 1174.47 569.563C1174.47 571.836 1173.81 573.631 1172.5 574.947C1171.18 576.144 1169.39 576.742 1167.11 576.742C1164.96 576.742 1163.22 575.845 1161.91 574.05C1162.74 572.973 1163.1 571.836 1162.98 570.64C1162.98 569.443 1162.57 568.426 1161.73 567.588C1160.89 566.751 1159.75 566.332 1158.32 566.332C1155.45 566.332 1152.04 569.323 1148.09 575.306V616.768L1156.88 617.665V619.999H1129.24Z" fill="white" fill-opacity="0.67"/>
<path d="M1193.15 542.46C1193.15 540.306 1193.86 538.571 1195.3 537.255C1196.74 535.939 1198.47 535.281 1200.51 535.281C1202.66 535.281 1204.39 535.939 1205.71 537.255C1207.15 538.571 1207.86 540.306 1207.86 542.46C1207.86 544.494 1207.15 546.229 1205.71 547.665C1204.39 549.101 1202.72 549.819 1200.69 549.819C1198.65 549.819 1196.86 549.101 1195.3 547.665C1193.86 546.229 1193.15 544.494 1193.15 542.46ZM1189.02 564.896V562.922H1207.86V616.768L1215.4 617.665V619.999H1189.02V617.665L1196.74 616.768V566.153L1189.02 564.896Z" fill="white" fill-opacity="0.67"/>
<path d="M1275.95 614.255C1279.78 611.383 1282.18 607.674 1283.13 603.127H1285.83C1284.75 608.631 1282.12 612.999 1277.93 616.229C1273.74 619.46 1268.6 621.076 1262.49 621.076C1254.12 621.076 1247.12 618.323 1241.49 612.819C1235.99 607.435 1233.24 600.375 1233.24 591.64C1233.24 582.785 1235.93 575.606 1241.31 570.101C1246.7 564.477 1253.22 561.665 1260.88 561.665C1268.66 561.665 1274.76 563.999 1279.19 568.665C1283.73 573.212 1286.07 578.956 1286.19 585.896H1245.44V596.845C1245.44 603.426 1246.88 608.691 1249.75 612.64C1252.86 616.708 1257.05 618.742 1262.31 618.742C1267.58 618.742 1272.13 617.247 1275.95 614.255ZM1261.6 564.178C1256.69 564.178 1252.86 565.913 1250.11 569.383C1247.36 572.734 1245.86 577.341 1245.62 583.204H1273.98C1273.98 570.52 1269.85 564.178 1261.6 564.178Z" fill="white" fill-opacity="0.67"/>
<path d="M1351.05 619.999V608.511C1347.11 616.888 1341 621.076 1332.75 621.076C1324.61 621.076 1318.09 618.383 1313.18 612.999C1308.4 607.494 1306 600.255 1306 591.281C1306 582.306 1308.4 575.127 1313.18 569.742C1318.09 564.358 1324.61 561.665 1332.75 561.665C1341 561.665 1347.11 565.913 1351.05 574.409V534.742L1343.34 533.845V531.511H1362.18V616.768L1369.9 617.665V619.999H1351.05ZM1318.21 585.896V596.845C1318.21 611.204 1323.29 618.383 1333.46 618.383C1338.37 618.383 1342.5 616.349 1345.85 612.281C1349.2 608.212 1350.93 603.366 1351.05 597.742V585.178C1350.93 579.435 1349.2 574.529 1345.85 570.46C1342.5 566.392 1338.37 564.358 1333.46 564.358C1323.29 564.358 1318.21 571.537 1318.21 585.896Z" fill="white" fill-opacity="0.67"/>
<path d="M1401.89 619.101C1400.69 620.417 1399.13 621.076 1397.22 621.076C1395.42 621.076 1393.93 620.417 1392.73 619.101C1391.54 617.785 1390.94 616.229 1390.94 614.435C1390.94 612.64 1391.54 611.144 1392.73 609.947C1393.93 608.751 1395.42 608.153 1397.22 608.153C1399.13 608.153 1400.69 608.751 1401.89 609.947C1403.2 611.144 1403.86 612.64 1403.86 614.435C1403.86 616.229 1403.2 617.785 1401.89 619.101ZM1398.66 601.691H1395.96C1395.84 591.161 1395.01 578.537 1393.45 563.819C1392.01 549.101 1391.3 540.546 1391.3 538.153C1391.3 535.64 1391.83 533.725 1392.91 532.409C1393.99 531.093 1395.42 530.435 1397.22 530.435C1399.13 530.435 1400.63 531.093 1401.71 532.409C1402.9 533.725 1403.5 535.64 1403.5 538.153C1403.5 540.665 1402.72 549.281 1401.17 563.999C1399.73 578.597 1398.89 591.161 1398.66 601.691Z" fill="white" fill-opacity="0.67"/>
<path d="M953.924 176.114C939.546 189.646 919.055 194.862 899.113 190.067C856.357 179.786 846.357 123.116 880.466 102.234C898.369 91.2715 923.055 94.5541 934.42 113.112C949.336 137.478 930.829 166.819 904.622 162.312C890.708 161.147 886.264 142.804 898.236 135.474C906.201 130.597 916.887 134.371 919.702 143.646C921.792 141.7 923.266 139.186 923.952 136.344C928.373 117.962 907.359 103.494 888.361 115.127C865.663 129.026 873.024 168.246 902.65 175.369C917.843 179.022 932.755 175.279 943.562 165.104C977.503 133.151 940.728 76.5424 896.318 85.1233C883.963 87.5093 872.708 94.675 862.388 102.059C769.878 168.246 669.546 172.917 570.505 102.059C560.182 94.675 548.926 87.5093 536.571 85.1233C492.31 76.5736 455.308 133.077 489.332 165.104C500.139 175.279 515.055 179.022 530.244 175.369C549.523 170.733 561.437 151.279 556.802 132.001C551.379 109.459 521.725 104.086 511.367 121.006C506.26 129.342 507.955 138.441 513.148 143.56C515.955 134.32 526.618 130.492 534.61 135.388C546.221 142.496 542.478 160.149 529.156 162.133C503.16 167.459 483.117 138.192 498.474 113.112C515.842 84.7452 562.926 92.8192 571.499 128.464C578.084 155.848 561.16 183.482 533.776 190.067C513.835 194.862 493.343 189.646 478.965 176.114C434.256 134.024 480.006 58.7763 539.441 70.2773C566.922 75.5912 576.844 92.1097 616.264 112.461C600.154 93.6535 593.948 70.6711 599.495 47.5989C607.499 14.3046 640.93 -6.16325 674.221 1.84455C716.977 12.1253 726.973 68.7958 692.868 89.6769C662.369 108.351 627.129 83.4391 634.685 52.0317C638.377 36.6633 653.184 27.1896 668.213 29.5171C682.299 30.636 686.533 49.096 674.661 56.3631C666.817 61.1662 656.334 57.5834 653.316 48.5853C647.577 54.2773 647.581 64.0044 651.807 70.9089C662.205 87.8836 691.835 82.3943 697.242 59.9147C701.878 40.636 689.963 21.1779 670.685 16.5424C619.336 4.19542 583.542 76.445 645.203 117.985C684.876 144.714 747.714 144.921 787.69 117.985C813.063 100.893 824.653 75.8992 818.696 51.135C812.646 25.9615 787.379 10.4917 762.205 16.5424C732.494 23.6886 725.269 62.9206 747.917 76.7841C766.895 88.4099 787.932 73.9654 783.507 55.5678C782.864 52.8777 781.496 50.4956 779.585 48.5931C776.583 57.6067 766.092 61.2208 758.228 56.406C751.39 52.2188 749.242 43.2793 753.429 36.441C761.854 22.6828 792.466 28.1603 798.205 52.0317C805.726 83.2988 770.708 108.464 740.022 89.6808C705.819 68.7335 716.057 12.0941 758.669 1.84455C817.998 -12.4245 862.314 59.1116 816.626 112.461C854.572 92.8699 866.478 75.4937 893.449 70.2812C952.478 58.8582 999.047 133.634 953.924 176.114V176.114Z" fill="#E5D6C1"/>
</svg>
